<svg xmlns="http://www.w3.org/2000/svg" viewBox="0 0 64 64">
  <clipPath id="a">
    <circle cx="32" cy="32" r="32"></circle>
  </clipPath>
  <g clip-path="url(#a)">
    <path fill="#012169" d="M0 0h64v64H0z"></path>
    <path fill="#fff" d="M-7 0h14l64 42v14H57L-7 14z"></path>
    <path fill="#fff" d="M71 0H57L-7 42v14h14L71 14z"></path>
    <path fill="#c8102e" d="M-7 0h7l64 42v7h-7L-7 7z"></path>
    <path fill="#c8102e" d="M71 0h-7L0 42v7h7L71 7z"></path>
    <path fill="#fff" d="M24 0h16v64H24z"></path>
    <path fill="#fff" d="M0 24h64v16H0z"></path>
    <path fill="#c8102e" d="M27 0h10v64H27z"></path>
    <path fill="#c8102e" d="M0 27h64v10H0z"></path>
  </g>
</svg>